# xmcd CD database file
#
# Track frame offsets:
#	150
#	17887
#	28837
#	35769
#	50572
#	66240
#	85135
#	96405
#	116893
#	132567
#	148354
#	170257
#	184163
#	200215
#	214916
#	224087
#
# Disc length: 3193 seconds
#
# Revision: 1
# Processed by: cddbd v1.5.2PL0 Copyright (c) Steve Scherf et al.
# Submitted via: CDex 1.70beta2
#
DISCID=100c7710
DTITLE=Simpson, Grant [CDN-ragtime jazz) Whitehorse,YK - Stride and True
DYEAR=1900
DGENRE=Jazz
TTITLE0=If I Could Be With You (One Hour Tonight)
TTITLE1=Dollar Dance
TTITLE2=Load of "Cole"
TTITLE3=You Can't lose A Broken Heart
TTITLE4=On The Street Where You Live
TTITLE5=So Beautiful Like You
TTITLE6=Stridin' For HJ
TTITLE7=The Pearls
TTITLE8=Just As Though You Were Here
TTITLE9=How Can You Face Me
TTITLE10=Vipeer's Drag
TTITLE11=Love Of My Life
TTITLE12=Just Before Daybreak
TTITLE13=Echo Of Spring
TTITLE14=The Mule Walk
TTITLE15=Whitehorse Blues
EXTD=
EXTT0=
EXTT1=
EXTT2=
EXTT3=
EXTT4=
EXTT5=
EXTT6=
EXTT7=
EXTT8=
EXTT9=
EXTT10=
EXTT11=
EXTT12=
EXTT13=
EXTT14=
EXTT15=
PLAYORDER=
